<svg width="128" height="128" viewBox="0 0 128 128" fill="none" xmlns="http://www.w3.org/2000/svg">
<g clip-path="url(#clip0_111_59)">
<path d="M98 0H30C13.4315 0 0 13.4315 0 30V98C0 114.569 13.4315 128 30 128H98C114.569 128 128 114.569 128 98V30C128 13.4315 114.569 0 98 0Z" fill="black"/>
<path d="M61.6518 20.7786L26.9211 40.9172C24.5531 42.2932 23.7425 45.3332 25.1185 47.7012C25.5558 48.4479 26.1745 49.0666 26.9211 49.5039L61.7371 69.6959C63.2731 70.5812 65.1611 70.5919 66.6971 69.7066L100.724 50.2612C103.102 48.9066 103.934 45.8666 102.58 43.4879C102.164 42.7626 101.566 42.1439 100.852 41.7066L66.7398 20.8212C66.3558 20.5866 65.4598 20.1066 64.2011 20.0959C62.9531 20.0852 62.0358 20.5439 61.6518 20.7679V20.7786Z" stroke="black" stroke-width="5.33333"/>
<path d="M33.1822 56.3943L27.1662 59.7437C24.7662 61.077 23.9022 64.0957 25.2355 66.4957C25.6729 67.2743 26.3129 67.925 27.0809 68.3837L61.7369 88.4797C63.2729 89.365 65.1609 89.3757 66.6969 88.4903L100.926 68.9277C103.305 67.5623 104.137 64.533 102.772 62.1543C102.377 61.461 101.822 60.8743 101.161 60.4477L95.3369 56.6823C93.7902 55.6797 91.8169 55.6157 90.2062 56.5223L66.6435 69.7703C65.1289 70.6237 63.2835 70.6237 61.7795 69.7703L38.0249 56.4157C36.5209 55.573 34.6862 55.5623 33.1822 56.405V56.3943Z" stroke="black" stroke-width="5.33333"/>
<path d="M33.1822 75.1683L27.1662 78.507C24.7662 79.8403 23.9022 82.859 25.2355 85.259C25.6729 86.0376 26.3129 86.6883 27.0809 87.147L61.7369 107.243C63.2729 108.128 65.1609 108.139 66.6969 107.254L100.926 87.691C103.305 86.3256 104.137 83.2963 102.772 80.9176C102.377 80.2243 101.822 79.6376 101.161 79.211L95.3369 75.4456C93.7902 74.443 91.8169 74.379 90.2062 75.2856L66.6435 88.5336C65.1289 89.387 63.2835 89.387 61.7795 88.5336L38.0249 75.179C36.5209 74.3363 34.6862 74.3256 33.1822 75.179V75.1683Z" stroke="black" stroke-width="5.33333"/>
</g>
<g clip-path="url(#clip1_111_59)">
<path d="M128 0H0V128H128V0Z" fill="black"/>
</g>
<path d="M43.2362 96V43.5973H27V32H72.5302V43.5973H56.5517V96H43.2362Z" fill="white"/>
<path d="M88.0584 96V43.2537H75.602V32H101.374V96H88.0584Z" fill="white"/>
<defs>
<clipPath id="clip0_111_59">
<rect width="128" height="128" fill="white"/>
</clipPath>
<clipPath id="clip1_111_59">
<rect width="128" height="128" fill="white"/>
</clipPath>
</defs>
</svg>
