<svg width="870" height="86" viewBox="0 0 870 86" fill="none" xmlns="http://www.w3.org/2000/svg">
<path d="M21 84V16.9H0.21V2.04999H58.51V16.9H38.05V84H21ZM66.9534 84V2.04999H84.0034V84H66.9534ZM98.5354 84V2.04999H153.645V16.9H115.585V35.49H151.445V50.34H115.585V69.15H153.645V84H98.5354ZM163.311 84V2.04999H194.661C200.307 2.04999 205.294 3.03999 209.621 5.01999C214.021 6.99999 217.467 9.93333 219.961 13.82C222.454 17.7067 223.701 22.51 223.701 28.23C223.701 33.8033 222.417 38.57 219.851 42.53C217.284 46.4167 213.837 49.35 209.511 51.33L228.211 84H209.071L188.831 47.81L199.831 54.3H180.361V84H163.311ZM180.361 39.45H194.771C197.191 39.45 199.281 38.9733 201.041 38.02C202.801 37.0667 204.157 35.7467 205.111 34.06C206.137 32.3733 206.651 30.43 206.651 28.23C206.651 25.9567 206.137 23.9767 205.111 22.29C204.157 20.6033 202.801 19.2833 201.041 18.33C199.281 17.3767 197.191 16.9 194.771 16.9H180.361V39.45ZM267.886 84V16.46H251.936V2.04999H284.936V84H267.886ZM345.631 84L315.601 2.04999H324.731L351.131 76.19H349.371L375.661 2.04999H384.901L354.871 84H345.631ZM395.828 84V2.04999H448.628V10.3H404.628V38.79H446.428V47.04H404.628V75.75H448.628V84H395.828ZM463.182 84V2.04999H470.882L518.952 71.02H515.982V2.04999H524.782V84H517.082L469.012 14.59H471.982V84H463.182ZM558.368 84V10.3H535.708V2.04999H589.608V10.3H567.168V84H558.368ZM629.287 85.32C623.494 85.32 618.397 84.11 613.997 81.69C609.597 79.27 606.187 75.97 603.767 71.79C601.347 67.5367 600.137 62.6967 600.137 57.27V2.04999H608.937V57.27C608.937 61.23 609.78 64.7133 611.467 67.72C613.227 70.6533 615.61 72.9633 618.617 74.65C621.697 76.2633 625.254 77.07 629.287 77.07C633.32 77.07 636.84 76.2633 639.847 74.65C642.927 72.9633 645.31 70.6533 646.997 67.72C648.757 64.7133 649.637 61.23 649.637 57.27V2.04999H658.437V57.27C658.437 62.6967 657.227 67.5367 654.807 71.79C652.387 75.97 648.977 79.27 644.577 81.69C640.25 84.11 635.154 85.32 629.287 85.32ZM677.489 84V2.04999H705.649C711.002 2.04999 715.695 3.11333 719.729 5.24C723.762 7.29333 726.879 10.2267 729.079 14.04C731.352 17.78 732.489 22.1433 732.489 27.13C732.489 32.9233 730.949 37.8733 727.869 41.98C724.862 46.0867 720.755 48.9833 715.549 50.67L734.689 84H724.349L704.329 48.69L710.269 52.1H686.289V84H677.489ZM686.289 43.85H706.089C709.609 43.85 712.689 43.19 715.329 41.87C717.969 40.4767 720.022 38.5333 721.489 36.04C722.955 33.4733 723.689 30.4667 723.689 27.02C723.689 23.5733 722.955 20.6033 721.489 18.11C720.022 15.6167 717.969 13.71 715.329 12.39C712.689 10.9967 709.609 10.3 706.089 10.3H686.289V43.85ZM747.957 84V2.04999H800.757V10.3H756.757V38.79H798.557V47.04H756.757V75.75H800.757V84H747.957ZM842.921 85.32C837.714 85.32 832.984 84.33 828.731 82.35C824.478 80.37 820.884 77.73 817.951 74.43C815.018 71.0567 812.928 67.3533 811.681 63.32L819.601 60.35C821.508 65.9233 824.478 70.1767 828.511 73.11C832.544 75.97 837.348 77.4 842.921 77.4C846.441 77.4 849.521 76.85 852.161 75.75C854.874 74.5767 856.964 72.9633 858.431 70.91C859.898 68.8567 860.631 66.4733 860.631 63.76C860.631 59.7267 859.531 56.61 857.331 54.41C855.131 52.21 851.978 50.5233 847.871 49.35L833.131 44.95C827.338 43.2633 822.864 40.44 819.711 36.48C816.631 32.52 815.091 28.01 815.091 22.95C815.091 18.6233 816.154 14.81 818.281 11.51C820.408 8.13666 823.304 5.49666 826.971 3.59C830.711 1.68333 834.928 0.729997 839.621 0.729997C844.534 0.729997 848.934 1.64666 852.821 3.47999C856.781 5.24 860.118 7.58666 862.831 10.52C865.544 13.4533 867.488 16.7167 868.661 20.31L860.961 23.39C859.201 18.55 856.451 14.8833 852.711 12.39C849.044 9.89666 844.718 8.64999 839.731 8.64999C836.578 8.64999 833.791 9.19999 831.371 10.3C829.024 11.4 827.191 12.9767 825.871 15.03C824.551 17.0833 823.891 19.5033 823.891 22.29C823.891 25.6633 824.954 28.7067 827.081 31.42C829.208 34.06 832.471 36.04 836.871 37.36L849.851 41.21C856.304 43.1167 861.181 45.8667 864.481 49.46C867.781 53.0533 869.431 57.5633 869.431 62.99C869.431 67.39 868.294 71.2767 866.021 74.65C863.821 77.95 860.704 80.5533 856.671 82.46C852.711 84.3667 848.128 85.32 842.921 85.32Z" fill="white"/>
</svg>
